<svg width="10" height="16" viewBox="0 0 10 16" fill="none" xmlns="http://www.w3.org/2000/svg">
<path d="M9.29688 8C9.29688 7.875 9.23438 7.73438 9.14063 7.64063L1.85938 0.359375C1.76563 0.265626 1.625 0.203125 1.5 0.203125C1.375 0.203125 1.23438 0.265626 1.14062 0.359375L0.359375 1.14063C0.265625 1.23438 0.203125 1.375 0.203125 1.5C0.203125 1.625 0.265625 1.76563 0.359375 1.85938L6.5 8L0.359375 14.1406C0.265625 14.2344 0.203125 14.375 0.203125 14.5C0.203125 14.6406 0.265625 14.7656 0.359375 14.8594L1.14062 15.6406C1.23438 15.7344 1.375 15.7969 1.5 15.7969C1.625 15.7969 1.76563 15.7344 1.85938 15.6406L9.14063 8.35938C9.23438 8.26563 9.29688 8.125 9.29688 8Z" fill="white"/>
</svg>
