<svg width="80" height="80" viewBox="0 0 80 80" fill="none" xmlns="http://www.w3.org/2000/svg">
<path d="M23.6221 54.4171H25.8893C26.138 54.4171 26.3764 54.3184 26.5522 54.1426C26.728 53.9667 26.8268 53.7283 26.8268 53.4796C26.8268 53.231 26.728 52.9926 26.5522 52.8167C26.3764 52.6409 26.138 52.5421 25.8893 52.5421H23.6221C23.3735 52.5421 23.135 52.6409 22.9592 52.8167C22.7834 52.9926 22.6846 53.231 22.6846 53.4796C22.6846 53.7283 22.7834 53.9667 22.9592 54.1426C23.135 54.3184 23.3735 54.4171 23.6221 54.4171Z" fill="white"/>
<path d="M34.3581 56.7906H37.2581C37.5067 56.7906 37.7452 56.6919 37.921 56.516C38.0968 56.3402 38.1956 56.1018 38.1956 55.8531C38.1956 55.6045 38.0968 55.366 37.921 55.1902C37.7452 55.0144 37.5067 54.9156 37.2581 54.9156H34.3581C34.1095 54.9156 33.871 55.0144 33.6952 55.1902C33.5194 55.366 33.4206 55.6045 33.4206 55.8531C33.4206 56.1018 33.5194 56.3402 33.6952 56.516C33.871 56.6919 34.1095 56.7906 34.3581 56.7906Z" fill="white"/>
<path d="M50.7893 61.6937H53.2143C53.463 61.6937 53.7014 61.5949 53.8772 61.4191C54.053 61.2433 54.1518 61.0048 54.1518 60.7562C54.1518 60.5075 54.053 60.2691 53.8772 60.0933C53.7014 59.9174 53.463 59.8187 53.2143 59.8187H50.7893C50.5407 59.8187 50.3022 59.9174 50.1264 60.0933C49.9506 60.2691 49.8518 60.5075 49.8518 60.7562C49.8518 61.0048 49.9506 61.2433 50.1264 61.4191C50.3022 61.5949 50.5407 61.6937 50.7893 61.6937Z" fill="white"/>
<path d="M25.8487 61.2313C25.8487 61.4799 25.9475 61.7184 26.1233 61.8942C26.2991 62.07 26.5376 62.1688 26.7862 62.1688H29.0534C29.302 62.1688 29.5405 62.07 29.7163 61.8942C29.8921 61.7184 29.9909 61.4799 29.9909 61.2313C29.9909 60.9827 29.8921 60.7442 29.7163 60.5684C29.5405 60.3926 29.302 60.2938 29.0534 60.2938H26.7862C26.5376 60.2938 26.2991 60.3926 26.1233 60.5684C25.9475 60.7442 25.8487 60.9827 25.8487 61.2313Z" fill="white"/>
<path d="M64.0878 63.2875C64.0878 63.5361 64.1866 63.7746 64.3624 63.9504C64.5382 64.1262 64.7767 64.225 65.0253 64.225H67.7675C68.0162 64.225 68.2546 64.1262 68.4304 63.9504C68.6062 63.7746 68.705 63.5361 68.705 63.2875C68.705 63.0388 68.6062 62.8004 68.4304 62.6246C68.2546 62.4488 68.0162 62.35 67.7675 62.35H65.0253C64.7767 62.35 64.5382 62.4488 64.3624 62.6246C64.1866 62.8004 64.0878 63.0388 64.0878 63.2875Z" fill="white"/>
<path d="M14.1846 62.35H11.4424C11.1938 62.35 10.9553 62.4488 10.7795 62.6246C10.6037 62.8004 10.5049 63.0388 10.5049 63.2875C10.5049 63.5361 10.6037 63.7746 10.7795 63.9504C10.9553 64.1262 11.1938 64.225 11.4424 64.225H14.1846C14.4333 64.225 14.6717 64.1262 14.8475 63.9504C15.0234 63.7746 15.1221 63.5361 15.1221 63.2875C15.1221 63.0388 15.0234 62.8004 14.8475 62.6246C14.6717 62.4488 14.4333 62.35 14.1846 62.35Z" fill="white"/>
<path d="M44.3237 54.7079H46.5909C46.8396 54.7079 47.078 54.6091 47.2538 54.4333C47.4296 54.2575 47.5284 54.019 47.5284 53.7704C47.5284 53.5217 47.4296 53.2833 47.2538 53.1074C47.078 52.9316 46.8396 52.8329 46.5909 52.8329H44.3237C44.0751 52.8329 43.8366 52.9316 43.6608 53.1074C43.485 53.2833 43.3862 53.5217 43.3862 53.7704C43.3862 54.019 43.485 54.2575 43.6608 54.4333C43.8366 54.6091 44.0751 54.7079 44.3237 54.7079Z" fill="white"/>
<path d="M36.6721 41.6922H43.3284C43.577 41.6922 43.8155 41.5935 43.9913 41.4176C44.1671 41.2418 44.2659 41.0034 44.2659 40.7547V36.2797C44.2659 35.1484 43.8165 34.0634 43.0165 33.2635C42.2165 32.4635 41.1316 32.0141 40.0003 32.0141C38.8689 32.0141 37.784 32.4635 36.984 33.2635C36.184 34.0634 35.7346 35.1484 35.7346 36.2797V40.7547C35.7346 41.0034 35.8334 41.2418 36.0092 41.4176C36.185 41.5935 36.4235 41.6922 36.6721 41.6922ZM37.6096 36.2797C37.6096 35.6457 37.8615 35.0376 38.3098 34.5893C38.7582 34.141 39.3662 33.8891 40.0003 33.8891C40.6343 33.8891 41.2423 34.141 41.6907 34.5893C42.139 35.0376 42.3909 35.6457 42.3909 36.2797V39.8172H37.6096V36.2797Z" fill="white"/>
<path d="M32.6769 29.8921C32.4282 29.8921 32.1898 29.9909 32.014 30.1667C31.8382 30.3425 31.7394 30.581 31.7394 30.8296V31.5499C31.7394 31.7986 31.8382 32.037 32.014 32.2129C32.1898 32.3887 32.4282 32.4874 32.6769 32.4874C32.9255 32.4874 33.164 32.3887 33.3398 32.2129C33.5156 32.037 33.6144 31.7986 33.6144 31.5499V30.8296C33.6144 30.581 33.5156 30.3425 33.3398 30.1667C33.164 29.9909 32.9255 29.8921 32.6769 29.8921Z" fill="white"/>
<path d="M32.6769 33.4515C32.4282 33.4515 32.1898 33.5503 32.014 33.7261C31.8382 33.9019 31.7394 34.1403 31.7394 34.389V40.2484C31.7394 40.497 31.8382 40.7354 32.014 40.9113C32.1898 41.0871 32.4282 41.1859 32.6769 41.1859C32.9255 41.1859 33.164 41.0871 33.3398 40.9113C33.5156 40.7354 33.6144 40.497 33.6144 40.2484V34.389C33.6144 34.1403 33.5156 33.9019 33.3398 33.7261C33.164 33.5503 32.9255 33.4515 32.6769 33.4515Z" fill="white"/>
<path d="M65.5409 48.7344C65.5409 48.4858 65.4421 48.2473 65.2663 48.0715C65.0905 47.8957 64.852 47.7969 64.6034 47.7969H62.0206C61.7719 47.7969 61.5335 47.8957 61.3577 48.0715C61.1818 48.2473 61.0831 48.4858 61.0831 48.7344C61.0831 48.9831 61.1818 49.2215 61.3577 49.3973C61.5335 49.5732 61.7719 49.6719 62.0206 49.6719H64.6034C64.852 49.6719 65.0905 49.5732 65.2663 49.3973C65.4421 49.2215 65.5409 48.9831 65.5409 48.7344Z" fill="white"/>
<path d="M19.6298 42.6969C19.6298 42.4483 19.5311 42.2098 19.3553 42.034C19.1794 41.8582 18.941 41.7594 18.6923 41.7594H16.108C15.8593 41.7594 15.6209 41.8582 15.4451 42.034C15.2692 42.2098 15.1705 42.4483 15.1705 42.6969C15.1705 42.9455 15.2692 43.184 15.4451 43.3598C15.6209 43.5356 15.8593 43.6344 16.108 43.6344H18.6923C18.941 43.6344 19.1794 43.5356 19.3553 43.3598C19.5311 43.184 19.6298 42.9455 19.6298 42.6969Z" fill="white"/>
<path d="M72.5534 72.3328V39.3996C73.209 39.3818 73.8319 39.1091 74.2897 38.6394C74.7474 38.1696 75.004 37.5399 75.0049 36.884V28.3437C75.0049 28.0951 74.9061 27.8566 74.7303 27.6808C74.5545 27.505 74.3161 27.4062 74.0674 27.4062H70.5284C70.2797 27.4062 70.0413 27.505 69.8654 27.6808C69.6896 27.8566 69.5909 28.0951 69.5909 28.3437V30.2531H67.6799V28.3437C67.6799 28.0951 67.5811 27.8566 67.4053 27.6808C67.2295 27.505 66.9911 27.4062 66.7424 27.4062H63.2034C62.9547 27.4062 62.7163 27.505 62.5404 27.6808C62.3646 27.8566 62.2659 28.0951 62.2659 28.3437V30.2531H60.3549V28.3437C60.3549 28.0951 60.2561 27.8566 60.0803 27.6808C59.9045 27.505 59.666 27.4062 59.4174 27.4062H55.8783C55.6297 27.4062 55.3913 27.505 55.2154 27.6808C55.0396 27.8566 54.9408 28.0951 54.9408 28.3437V36.8843C54.9417 37.5402 55.1983 38.1699 55.6561 38.6397C56.1139 39.1094 56.7368 39.3821 57.3924 39.4V44.8046H53.5096C53.261 44.8046 53.0225 44.9034 52.8467 45.0792C52.6709 45.255 52.5721 45.4935 52.5721 45.7421V47.6515H51.7518V27.6203H53.3409C53.5232 27.6202 53.7015 27.567 53.8541 27.4671C54.0066 27.3672 54.1267 27.225 54.1997 27.0579C54.2727 26.8908 54.2953 26.7061 54.2649 26.5263C54.2344 26.3465 54.1522 26.1795 54.0284 26.0457L40.9377 11.9121V9.64996L47.4134 6.83152C47.5787 6.75956 47.7197 6.64146 47.8196 6.49137C47.9195 6.34129 47.974 6.16559 47.9765 5.98532C47.9791 5.80505 47.9297 5.62787 47.8341 5.47499C47.7385 5.32212 47.6009 5.20005 47.4377 5.1234L40.8246 2.0173C40.7253 1.83388 40.5676 1.68883 40.3766 1.6051C40.1855 1.52136 39.972 1.50374 39.7698 1.555C39.5676 1.60627 39.3883 1.7235 39.2602 1.88814C39.1322 2.05278 39.0627 2.25543 39.0627 2.46402V11.9121L25.9718 26.0457C25.8479 26.1795 25.7657 26.3465 25.7353 26.5263C25.7048 26.7061 25.7275 26.8908 25.8004 27.0579C25.8734 27.225 25.9935 27.3672 26.1461 27.4671C26.2986 27.567 26.477 27.6202 26.6593 27.6203H28.2484V47.6515H27.428V45.7421C27.428 45.4935 27.3293 45.255 27.1535 45.0792C26.9776 44.9034 26.7392 44.8046 26.4905 44.8046H22.608V39.3996C23.2637 39.3818 23.8866 39.1091 24.3443 38.6394C24.8021 38.1696 25.0587 37.5399 25.0596 36.884V28.3437C25.0596 28.0951 24.9608 27.8566 24.785 27.6808C24.6092 27.505 24.3707 27.4062 24.1221 27.4062H20.583C20.3344 27.4062 20.0959 27.505 19.9201 27.6808C19.7443 27.8566 19.6455 28.0951 19.6455 28.3437V30.2531H17.7346V28.3437C17.7346 28.0951 17.6358 27.8566 17.46 27.6808C17.2842 27.505 17.0457 27.4062 16.7971 27.4062H13.258C13.0094 27.4062 12.7709 27.505 12.5951 27.6808C12.4193 27.8566 12.3205 28.0951 12.3205 28.3437V30.2531H10.4096V28.3437C10.4096 28.0951 10.3108 27.8566 10.135 27.6808C9.9592 27.505 9.72075 27.4062 9.47211 27.4062H5.93304C5.6844 27.4062 5.44595 27.505 5.27013 27.6808C5.09432 27.8566 4.99554 28.0951 4.99554 28.3437V36.8843C4.99644 37.5402 5.25303 38.1699 5.7108 38.6397C6.16857 39.1094 6.79145 39.3821 7.44711 39.4V72.3328C6.27785 72.382 5.17273 72.8807 4.36227 73.7249C3.5518 74.5692 3.09857 75.6937 3.09711 76.864V77.5359C3.09711 77.7845 3.19588 78.023 3.37169 78.1988C3.54751 78.3746 3.78597 78.4734 4.03461 78.4734H75.9659C76.2145 78.4734 76.4529 78.3746 76.6288 78.1988C76.8046 78.023 76.9034 77.7845 76.9034 77.5359V76.864C76.9019 75.6937 76.4487 74.5692 75.6382 73.7249C74.8277 72.8807 73.7226 72.382 72.5534 72.3328ZM40.9377 4.14183L44.7648 5.93871L40.9377 7.60496V4.14183ZM56.8158 36.8843V29.2812H58.4799V31.1906C58.4799 31.4392 58.5787 31.6777 58.7545 31.8535C58.9303 32.0293 59.1688 32.1281 59.4174 32.1281H63.2034C63.452 32.1281 63.6904 32.0293 63.8663 31.8535C64.0421 31.6777 64.1409 31.4392 64.1409 31.1906V29.2812H65.8049V31.1906C65.8049 31.4392 65.9037 31.6777 66.0795 31.8535C66.2553 32.0293 66.4938 32.1281 66.7424 32.1281H70.5284C70.777 32.1281 71.0154 32.0293 71.1913 31.8535C71.3671 31.6777 71.4659 31.4392 71.4659 31.1906V29.2812H73.1299V36.8843C73.1297 37.055 73.0619 37.2187 72.9412 37.3394C72.8205 37.46 72.6568 37.5279 72.4862 37.5281H57.4596C57.2889 37.5279 57.1253 37.46 57.0046 37.3394C56.8839 37.2187 56.816 37.055 56.8158 36.8843ZM40.0002 13.6592L51.1946 25.7453H36.094C35.8453 25.7453 35.6069 25.844 35.4311 26.0199C35.2552 26.1957 35.1565 26.4341 35.1565 26.6828C35.1565 26.9314 35.2552 27.1699 35.4311 27.3457C35.6069 27.5215 35.8453 27.6203 36.094 27.6203H49.8768V47.6515H49.2299V45.7421C49.2299 45.4935 49.1311 45.255 48.9553 45.0792C48.7795 44.9034 48.5411 44.8046 48.2924 44.8046H42.4518C42.2031 44.8046 41.9647 44.9034 41.7889 45.0792C41.6131 45.255 41.5143 45.4935 41.5143 45.7421V47.6515H38.4862V45.7421C38.4862 45.4935 38.3874 45.255 38.2116 45.0792C38.0358 44.9034 37.7973 44.8046 37.5487 44.8046H31.708C31.4594 44.8046 31.2209 44.9034 31.0451 45.0792C30.8693 45.255 30.7705 45.4935 30.7705 45.7421V47.6515H30.1237V27.6203H32.6565C32.9051 27.6203 33.1436 27.5215 33.3194 27.3457C33.4952 27.1699 33.594 26.9314 33.594 26.6828C33.594 26.4341 33.4952 26.1957 33.3194 26.0199C33.1436 25.844 32.9051 25.7453 32.6565 25.7453H28.8059L40.0002 13.6592ZM25.5534 46.6796V48.589C25.5534 48.8377 25.6521 49.0761 25.8279 49.2519C26.0038 49.4277 26.2422 49.5265 26.4909 49.5265H31.708C31.9567 49.5265 32.1951 49.4277 32.371 49.2519C32.5468 49.0761 32.6455 48.8377 32.6455 48.589V46.6796H36.6112V48.589C36.6112 48.8377 36.7099 49.0761 36.8857 49.2519C37.0616 49.4277 37.3 49.5265 37.5487 49.5265H42.4518C42.7004 49.5265 42.9389 49.4277 43.1147 49.2519C43.2905 49.0761 43.3893 48.8377 43.3893 48.589V46.6796H47.3549V48.589C47.3549 48.8377 47.4537 49.0761 47.6295 49.2519C47.8053 49.4277 48.0438 49.5265 48.2924 49.5265H53.5096C53.7582 49.5265 53.9967 49.4277 54.1725 49.2519C54.3483 49.0761 54.4471 48.8377 54.4471 48.589V46.6796H58.1033V51.5937H56.3252C56.0766 51.5937 55.8381 51.6925 55.6623 51.8683C55.4865 52.0441 55.3877 52.2826 55.3877 52.5312C55.3877 52.7799 55.4865 53.0183 55.6623 53.1941C55.8381 53.3699 56.0766 53.4687 56.3252 53.4687H58.1033V61.1781C58.1033 61.4267 58.2021 61.6652 58.3779 61.841C58.5538 62.0168 58.7922 62.1156 59.0408 62.1156C59.2895 62.1156 59.5279 62.0168 59.7038 61.841C59.8796 61.6652 59.9783 61.4267 59.9783 61.1781V57.1062H62.3893C62.6379 57.1062 62.8764 57.0074 63.0522 56.8316C63.228 56.6558 63.3268 56.4173 63.3268 56.1687C63.3268 55.9201 63.228 55.6816 63.0522 55.5058C62.8764 55.33 62.6379 55.2312 62.3893 55.2312H59.9783V45.7421C59.9781 45.5331 59.9081 45.3301 59.7792 45.1654C59.6504 45.0008 59.4703 44.8839 59.2674 44.8334V39.4031H70.6784V40.9953H68.1987C67.95 40.9953 67.7116 41.094 67.5358 41.2699C67.3599 41.4457 67.2612 41.6841 67.2612 41.9328C67.2612 42.1814 67.3599 42.4199 67.5358 42.5957C67.7116 42.7715 67.95 42.8703 68.1987 42.8703H70.6784V69.7843H68.3471C68.0985 69.7843 67.86 69.8831 67.6842 70.0589C67.5084 70.2347 67.4096 70.4732 67.4096 70.7218C67.4096 70.9705 67.5084 71.2089 67.6842 71.3847C67.86 71.5606 68.0985 71.6593 68.3471 71.6593H70.6784V72.3281H59.9783V64.4531C59.9783 64.2044 59.8796 63.966 59.7038 63.7902C59.5279 63.6144 59.2895 63.5156 59.0408 63.5156C58.7922 63.5156 58.5538 63.6144 58.3779 63.7902C58.2021 63.966 58.1033 64.2044 58.1033 64.4531V67.8859H56.1674C55.9188 67.8859 55.6803 67.9847 55.5045 68.1605C55.3287 68.3363 55.2299 68.5748 55.2299 68.8234C55.2299 69.072 55.3287 69.3105 55.5045 69.4863C55.6803 69.6621 55.9188 69.7609 56.1674 69.7609H58.1033V72.3281H46.2362V67.8359H50.2221C50.4707 67.8359 50.7092 67.7371 50.885 67.5613C51.0608 67.3855 51.1596 67.147 51.1596 66.8984C51.1596 66.6497 51.0608 66.4113 50.885 66.2355C50.7092 66.0597 50.4707 65.9609 50.2221 65.9609H46.2301C46.1974 65.065 45.9417 64.1915 45.4862 63.4193C45.0307 62.6472 44.3898 62.0009 43.6215 61.539L40.4809 59.664C40.3355 59.5773 40.1695 59.5314 40.0002 59.5314C39.831 59.5314 39.6649 59.5773 39.5196 59.664L36.379 61.539C35.5832 62.0169 34.9244 62.6921 34.4663 63.4994C34.0082 64.3067 33.7664 65.2186 33.7643 66.1468V69.1515H31.2127C30.9641 69.1515 30.7256 69.2503 30.5498 69.4261C30.374 69.6019 30.2752 69.8404 30.2752 70.089C30.2752 70.3377 30.374 70.5761 30.5498 70.7519C30.7256 70.9277 30.9641 71.0265 31.2127 71.0265H33.7643V72.3281H21.8971V66.5968H23.6752C23.9239 66.5968 24.1623 66.4981 24.3381 66.3222C24.514 66.1464 24.6127 65.908 24.6127 65.6593C24.6127 65.4107 24.514 65.1722 24.3381 64.9964C24.1623 64.8206 23.9239 64.7218 23.6752 64.7218H21.8971V46.6796H25.5534ZM44.3612 66.1468V72.3281H35.6393V66.1468C35.6405 65.5429 35.7978 64.9495 36.0958 64.4243C36.3938 63.899 36.8225 63.4596 37.3402 63.1487L40.0002 61.5606L42.6607 63.1489C43.1783 63.4598 43.6069 63.8992 43.9048 64.4244C44.2027 64.9497 44.3599 65.543 44.3612 66.1468ZM6.87054 36.8843V29.2812H8.53461V31.1906C8.53461 31.4392 8.63338 31.6777 8.80919 31.8535C8.98501 32.0293 9.22347 32.1281 9.47211 32.1281H13.258C13.5067 32.1281 13.7451 32.0293 13.921 31.8535C14.0968 31.6777 14.1955 31.4392 14.1955 31.1906V29.2812H15.8596V31.1906C15.8596 31.4392 15.9584 31.6777 16.1342 31.8535C16.31 32.0293 16.5485 32.1281 16.7971 32.1281H20.583C20.8317 32.1281 21.0701 32.0293 21.246 31.8535C21.4218 31.6777 21.5205 31.4392 21.5205 31.1906V29.2812H23.1846V36.8843C23.1844 37.055 23.1166 37.2187 22.9959 37.3394C22.8752 37.46 22.7115 37.5279 22.5409 37.5281H7.51429C7.34361 37.5279 7.17997 37.46 7.05928 37.3394C6.93859 37.2187 6.87071 37.055 6.87054 36.8843ZM18.244 57.264H20.0221V65.4412C19.9867 65.5845 19.9867 65.7342 20.0221 65.8775V69.1515H17.6112C17.3625 69.1515 17.1241 69.2503 16.9483 69.4261C16.7724 69.6019 16.6737 69.8404 16.6737 70.089C16.6737 70.3377 16.7724 70.5761 16.9483 70.7519C17.1241 70.9277 17.3625 71.0265 17.6112 71.0265H20.0221V72.3281H9.32211V50.1468H11.7955C12.0442 50.1468 12.2826 50.0481 12.4585 49.8722C12.6343 49.6964 12.733 49.458 12.733 49.2093C12.733 48.9607 12.6343 48.7222 12.4585 48.5464C12.2826 48.3706 12.0442 48.2718 11.7955 48.2718H9.32211V39.4031H20.733V44.8334C20.5302 44.8839 20.35 45.0008 20.2212 45.1654C20.0924 45.3301 20.0223 45.5331 20.0221 45.7421V55.389H18.244C17.9953 55.389 17.7569 55.4878 17.5811 55.6636C17.4053 55.8394 17.3065 56.0779 17.3065 56.3265C17.3065 56.5752 17.4053 56.8136 17.5811 56.9894C17.7569 57.1652 17.9953 57.264 18.244 57.264ZM4.98461 76.5984C5.05129 75.9421 5.35901 75.3339 5.84824 74.8915C6.33746 74.449 6.97341 74.2037 7.63304 74.2031H72.3674C73.027 74.2037 73.663 74.449 74.1522 74.8915C74.6414 75.3339 74.9492 75.9421 75.0158 76.5984H4.98461Z" fill="white"/>
</svg>
