<svg width="80" height="80" viewBox="0 0 80 80" fill="none" xmlns="http://www.w3.org/2000/svg">
<g clip-path="url(#clip0)">
<g clip-path="url(#clip1)">
<path d="M36.6549 63.3886L15.6377 41.2424C15.3613 40.9511 15.2119 40.5619 15.2224 40.1605C15.2329 39.759 15.4024 39.3781 15.6937 39.1017L50.0778 6.47059C50.1174 6.43306 50.1569 6.39554 50.1965 6.35801C57.0434 1.13988 66.0243 -0.206115 77.6502 2.24233C77.9505 2.30574 78.2244 2.45891 78.4357 2.68154C78.647 2.90417 78.7856 3.18575 78.8333 3.48897C80.681 15.2358 78.861 24.1296 73.2836 30.692C73.2491 30.7331 73.2123 30.7722 73.1734 30.8091L38.7904 63.4391C38.5 63.7147 38.1124 63.8641 37.7122 63.8546C37.312 63.8451 36.9319 63.6776 36.6549 63.3886V63.3886ZM18.8768 40.256L37.8092 60.2055L71.0357 28.6731C75.8791 22.9431 77.4667 15.3991 76.0066 5.00667C65.7056 3.01061 58.089 4.20164 52.1063 8.72903L18.8768 40.256Z" fill="white"/>
<path d="M7.99819 37.7372C7.85418 37.5857 7.7431 37.4061 7.67192 37.2095C7.60075 37.013 7.57103 36.8039 7.58464 36.5953L7.78775 33.5801C7.97346 30.5084 9.04068 27.5553 10.8616 25.0745C12.6825 22.5937 15.18 20.6904 18.0548 19.5925L18.2398 19.5234C24.3966 17.2529 31.192 17.4449 37.2109 20.0593C37.4283 20.1683 37.6163 20.3281 37.7589 20.5251C37.9016 20.7221 37.9946 20.9506 38.0303 21.1912C38.0659 21.4318 38.043 21.6774 37.9636 21.9073C37.8842 22.1372 37.7506 22.3446 37.5741 22.512L22.1213 37.1769C21.9348 37.3537 21.7064 37.4801 21.4575 37.5442C21.2087 37.6084 20.9476 37.6081 20.6989 37.5435C17.0323 36.7013 13.2035 36.8975 9.64221 38.1101C9.4047 38.2006 9.14824 38.2299 8.89644 38.1952C8.64465 38.1606 8.40563 38.0631 8.20142 37.9117C8.12883 37.8595 8.06084 37.8011 7.99819 37.7372V37.7372ZM18.5821 21.0126L19.1095 22.4306C16.781 23.3247 14.7596 24.8712 13.2875 26.8847C11.8154 28.8982 10.955 31.2934 10.8093 33.7834L10.7518 34.6313C13.99 33.845 17.3605 33.772 20.6297 34.4173L33.7309 21.9841C28.9944 20.5656 23.9283 20.7003 19.2739 22.3685L18.5821 21.0126Z" fill="white"/>
<path d="M39.7652 71.2108C39.7037 71.146 39.6479 71.0761 39.5982 71.0019C39.4578 70.79 39.3729 70.5462 39.3515 70.293C39.33 70.0397 39.3727 69.7851 39.4755 69.5527C40.8726 66.0596 41.2687 62.2463 40.6193 58.5407C40.5678 58.289 40.5812 58.0282 40.6583 57.7831C40.7353 57.538 40.8735 57.3165 41.0598 57.1395L56.5159 42.4714C56.6922 42.3038 56.9063 42.1812 57.14 42.114C57.3738 42.0467 57.6203 42.0367 57.8587 42.0849C58.0971 42.133 58.3204 42.2379 58.5097 42.3907C58.699 42.5434 58.8487 42.7395 58.9462 42.9623C61.2424 49.1096 61.0788 55.9058 58.4895 61.9355L58.4109 62.1166C57.1642 64.9301 55.1329 67.3246 52.5603 69.0133C49.9877 70.7021 46.9828 71.6134 43.9056 71.6383L40.8839 71.6835C40.6749 71.6862 40.4676 71.6456 40.2751 71.5642C40.0826 71.4829 39.909 71.3625 39.7652 71.2108V71.2108ZM43.7409 58.7702C44.2145 62.0687 43.9654 65.4307 43.0108 68.6233L43.8605 68.6102C46.3539 68.5946 48.7898 67.8607 50.8769 66.4965C52.9639 65.1323 54.6136 63.1956 55.6285 60.9181L57.0856 61.3536L55.6914 60.7644C57.6007 56.2036 58.0001 51.1515 56.8311 46.3473L43.7409 58.7702Z" fill="white"/>
<path d="M56.3219 23.6879C55.2358 22.5438 54.5134 21.1034 54.2459 19.5488C53.9785 17.9942 54.1781 16.3952 54.8194 14.954C55.4608 13.5128 56.5151 12.2941 57.8491 11.4522C59.1831 10.6102 60.7368 10.1828 62.3137 10.2239C63.8907 10.265 65.42 10.7728 66.7083 11.6831C67.9966 12.5934 68.986 13.8653 69.5515 15.3379C70.1169 16.8106 70.2329 18.4178 69.8848 19.9564C69.5368 21.495 68.7403 22.8958 67.596 23.9817C66.0608 25.4353 64.0117 26.2207 61.8982 26.1657C59.7847 26.1106 57.7793 25.2195 56.3219 23.6879V23.6879ZM65.6942 14.7934C65.0208 14.0834 64.152 13.589 63.1976 13.3729C62.2432 13.1567 61.2462 13.2285 60.3326 13.579C59.419 13.9296 58.6299 14.5432 58.065 15.3423C57.5002 16.1414 57.1851 17.0901 57.1595 18.0683C57.1339 19.0465 57.399 20.0104 57.9213 20.8379C58.4435 21.6654 59.1995 22.3195 60.0935 22.7174C60.9875 23.1152 61.9795 23.239 62.9439 23.073C63.9082 22.9071 64.8017 22.4588 65.5113 21.785C66.4613 20.8813 67.014 19.6377 67.0483 18.327C67.0826 17.0163 66.5956 15.7455 65.6942 14.7934V14.7934Z" fill="white"/>
<path d="M31.0354 66.5609L12.176 46.6883C11.8995 46.397 11.7501 46.0078 11.7606 45.6063C11.7711 45.2049 11.9407 44.824 12.232 44.5476L16.7726 40.2385C17.0639 39.962 17.4531 39.8126 17.8546 39.8231C18.256 39.8336 18.6369 40.0031 18.9133 40.2944L37.7728 60.1671C38.0492 60.4584 38.1986 60.8476 38.1881 61.249C38.1776 61.6505 38.0081 62.0313 37.7168 62.3078L33.1762 66.6169C32.8848 66.8934 32.4957 67.0428 32.0942 67.0323C31.6927 67.0218 31.3119 66.8522 31.0354 66.5609ZM15.4151 45.7019L32.1898 63.3778L34.5337 61.1534L17.759 43.4775L15.4151 45.7019Z" fill="white"/>
<path d="M1.63076 75.7306C0.973952 74.9708 0.558838 74.0323 0.438566 73.0352C0.318295 72.0381 0.498336 71.0277 0.955643 70.1336C2.19581 67.112 3.03703 63.9417 3.45806 60.7027C4.35142 55.1725 5.05695 50.8037 14.7721 46.4897C15.0579 46.3625 15.3761 46.3269 15.6829 46.3879C15.9897 46.4489 16.2701 46.6033 16.4855 46.8301L31.1036 62.2335C31.3192 62.4605 31.4592 62.7487 31.5042 63.0585C31.5492 63.3683 31.4971 63.6845 31.3551 63.9635C30.1585 66.5184 28.5412 68.8541 26.5707 70.8732C23.4712 73.8148 20.2974 74.1881 16.6229 74.6211C13.3961 74.9021 10.2184 75.5943 7.16702 76.6808C6.25616 77.0925 5.24305 77.2227 4.25772 77.0545C3.27238 76.8864 2.35978 76.4276 1.63702 75.7371L1.63076 75.7306ZM15.0341 49.7002C7.74616 53.1491 7.27467 56.0641 6.44871 61.188C5.98827 64.6672 5.0798 68.0722 3.74591 71.3184C3.33389 72.2876 3.36571 73.1593 3.82956 73.648C4.2882 74.1313 5.14644 74.202 6.12303 73.843C9.39843 72.6751 12.8086 71.9268 16.272 71.616C19.7908 71.1993 22.12 70.9282 24.4891 68.6798C25.9735 67.1655 27.2139 65.4299 28.1658 63.5351L15.0341 49.7002Z" fill="white"/>
<path d="M11.9836 65.8324C11.5509 65.3386 11.2737 64.728 11.1869 64.0773C11.1 63.4265 11.2074 62.7646 11.4955 62.1747C12.1053 60.6875 12.5194 59.1275 12.7277 57.5337C13.183 54.7469 13.5779 52.343 18.1245 50.0969C18.4143 49.9553 18.7417 49.9099 19.059 49.9674C19.3763 50.0248 19.6671 50.182 19.8888 50.4162L27.7065 58.6539C27.9284 58.8876 28.0699 59.186 28.1104 59.5057C28.151 59.8254 28.0885 60.1497 27.9321 60.4314C27.361 61.5152 26.6302 62.5071 25.7643 63.3737C24.241 64.7155 22.287 65.4663 20.2571 65.4897C18.67 65.6294 17.107 65.97 15.6056 66.5034C15.0041 66.7614 14.3396 66.8357 13.6959 66.7171C13.0522 66.5985 12.4579 66.2922 11.9878 65.8368L11.9836 65.8324ZM18.4832 53.3346C16.2596 54.6474 16.072 55.7982 15.7098 58.0188C15.4643 59.8509 14.9836 61.6437 14.2796 63.3529C14.2144 63.4801 14.1852 63.6226 14.1949 63.7652C14.1968 63.732 14.3337 63.7399 14.5543 63.6578C16.2814 63.0393 18.0803 62.6433 19.9074 62.4793C21.2811 62.5136 22.621 62.0507 23.6807 61.176C24.0739 60.7899 24.4221 60.3607 24.7189 59.8964L18.4832 53.3346Z" fill="white"/>
<path d="M32.2646 46.5187C31.9882 46.2274 31.8387 45.8382 31.8492 45.4368C31.8598 45.0353 32.0293 44.6544 32.3206 44.378L38.7592 38.2677C39.0505 37.9912 39.4397 37.8418 39.8411 37.8523C40.2426 37.8628 40.6235 38.0324 40.8999 38.3237C41.1764 38.615 41.3258 39.0042 41.3153 39.4056C41.3048 39.8071 41.1352 40.1879 40.8439 40.4644L34.4053 46.5747C34.114 46.8512 33.7248 47.0006 33.3234 46.9901C32.9219 46.9796 32.5411 46.81 32.2646 46.5187Z" fill="white"/>
<path d="M27.3925 41.3304C27.116 41.0391 26.9666 40.6499 26.9771 40.2484C26.9876 39.847 27.1572 39.4661 27.4485 39.1897L30.2801 36.5025C30.5714 36.226 30.9606 36.0766 31.362 36.0871C31.7635 36.0976 32.1443 36.2672 32.4208 36.5585C32.6972 36.8498 32.8466 37.2389 32.8361 37.6404C32.8256 38.0419 32.6561 38.4227 32.3648 38.6992L29.5332 41.3864C29.2419 41.6628 28.8527 41.8122 28.4513 41.8017C28.0498 41.7912 27.6689 41.6217 27.3925 41.3304Z" fill="white"/>
<path d="M37.1783 51.6419C36.9018 51.3506 36.7524 50.9614 36.7629 50.5599C36.7734 50.1585 36.943 49.7776 37.2343 49.5012L40.0658 46.814C40.3571 46.5375 40.7463 46.3881 41.1478 46.3986C41.5492 46.4091 41.9301 46.5786 42.2065 46.87C42.483 47.1613 42.6324 47.5505 42.6219 47.9519C42.6114 48.3534 42.4419 48.7342 42.1506 49.0107L39.319 51.6979C39.0277 51.9743 38.6385 52.1237 38.237 52.1132C37.8356 52.1027 37.4547 51.9332 37.1783 51.6419Z" fill="white"/>
</g>
</g>
<defs>
<clipPath id="clip0">
<rect width="80" height="80" fill="white"/>
</clipPath>
<clipPath id="clip1">
<rect width="112.053" height="112.053" fill="white" transform="translate(40.6534 -40.0324) rotate(46.4984)"/>
</clipPath>
</defs>
</svg>
